/* XPM */
static char *_ed88936547841d0c2142be0ab77fffd[] = {
/* columns rows colors chars-per-pixel */
"64 64 256 2 ",
"   c #020301",
".  c #050108",
"X  c #070318",
"o  c #160E0D",
"O  c #2F080A",
"+  c #10043A",
"@  c #241631",
"#  c #2F2B32",
"$  c #1B242B",
"%  c #510903",
"&  c #6F2E13",
"*  c #502F30",
"=  c #673934",
"-  c #523515",
";  c #624734",
":  c #18084A",
">  c #181857",
",  c #10114E",
"<  c #271259",
"1  c #132759",
"2  c #393744",
"3  c #081B64",
"4  c #0E126D",
"5  c #2A1D6B",
"6  c #172566",
"7  c #1A2876",
"8  c #062D73",
"9  c #242369",
"0  c #292676",
"q  c #2C317A",
"w  c #4E3446",
"e  c #6C275A",
"r  c #622367",
"t  c #08447B",
"y  c #524F55",
"u  c #694D4C",
"i  c #726D73",
"p  c #715C65",
"a  c #900204",
"s  c #AF0304",
"d  c #923914",
"f  c #B31B34",
"g  c #B4322D",
"h  c #9D2E22",
"j  c #CA0402",
"k  c #D10F0A",
"l  c #E80104",
"z  c #E61A03",
"x  c #F0100E",
"c  c #D32913",
"v  c #E92905",
"b  c #E92D14",
"n  c #D10C2C",
"m  c #EC1A26",
"M  c #D92827",
"N  c #D8352A",
"B  c #CE3033",
"V  c #E72927",
"C  c #EA3734",
"Z  c #ED312D",
"A  c #935334",
"S  c #AB4D2F",
"D  c #B06635",
"F  c #A44E11",
"G  c #D05113",
"H  c #E74532",
"J  c #ED6F27",
"K  c #D2522E",
"L  c #AF2E4A",
"P  c #AE3969",
"I  c #932357",
"U  c #EB3445",
"Y  c #C53F62",
"T  c #D13D4F",
"R  c #8D574B",
"E  c #936954",
"W  c #A66D52",
"Q  c #93766E",
"!  c #A9756C",
"~  c #B35569",
"^  c #EC4E4C",
"/  c #D56845",
"(  c #F16E69",
")  c #DE5C5D",
"_  c #F8B010",
"`  c #F39437",
"'  c #EC9D0D",
"]  c #F6CE0C",
"[  c #FDED03",
"{  c #FAEB09",
"}  c #FDF302",
"|  c #FAF508",
" . c #FCEA17",
".. c #FAF118",
"X. c #EEEE02",
"o. c #F9D42F",
"O. c #FAEA27",
"+. c #F9F327",
"@. c #FDEC33",
"#. c #FBEA3A",
"$. c #F2F03A",
"%. c #B88566",
"&. c #A78577",
"*. c #B08F74",
"=. c #AB8663",
"-. c #E8954A",
";. c #F1AF51",
":. c #C79A7A",
">. c #D89979",
",. c #C98C70",
"<. c #D7A67C",
"1. c #F0AF75",
"2. c #DA8E63",
"3. c #F1D859",
"4. c #FCEB47",
"5. c #FBEA58",
"6. c #F6F04E",
"7. c #F1D26F",
"8. c #FBEA66",
"9. c #FAE876",
"0. c #EEEC73",
"q. c #DEDB70",
"w. c #123886",
"e. c #323786",
"r. c #000082",
"t. c #0D4F91",
"y. c #284C8E",
"u. c #0156A6",
"i. c #0854AC",
"p. c #0679BA",
"a. c #0F69B1",
"s. c #2D74B3",
"d. c #2664A4",
"f. c #4873B3",
"g. c #696FAB",
"h. c #6F6386",
"j. c #047BC5",
"k. c #087AD2",
"l. c #3579C4",
"z. c #4F79C5",
"x. c #53308E",
"c. c #8E7B9C",
"v. c #A16BA0",
"b. c #E27F83",
"n. c #CF5F83",
"m. c #0284BC",
"M. c #2F89B4",
"N. c #14A39F",
"B. c #528ABA",
"V. c #6F8CB8",
"C. c #69ADA6",
"Z. c #068AC8",
"A. c #158AC8",
"S. c #0396C9",
"D. c #0289D1",
"F. c #0696D7",
"G. c #1698D7",
"H. c #1891CD",
"J. c #3797DC",
"K. c #3290CC",
"L. c #04A7D9",
"P. c #0BA9D3",
"I. c #25ABDB",
"U. c #3CACDE",
"Y. c #30B2D5",
"T. c #0A99E4",
"R. c #2D96E3",
"E. c #0DA8EB",
"W. c #37A8E7",
"Q. c #39B2E7",
"!. c #28AAE9",
"~. c #5092D2",
"^. c #6895CB",
"/. c #6F97D3",
"(. c #5AB3DA",
"). c #4DAED8",
"_. c #74B6DD",
"`. c #6FAAD1",
"'. c #4DB2E8",
"]. c #68BAE7",
"[. c #7BB8EB",
"{. c #6A9DE3",
"}. c #73C6EE",
"|. c #68C4E5",
" X c #938E8D",
".X c #B79886",
"XX c #AF9286",
"oX c #B0AA9D",
"OX c #A896AD",
"+X c #B1AFAD",
"@X c #8D9AAC",
"#X c #CA9987",
"$X c #CD928D",
"%X c #F19491",
"&X c #D7AA96",
"*X c #D9B89A",
"=X c #D0AA8B",
"-X c #E4B69A",
";X c #E9A991",
":X c #D9BBA4",
">X c #CFAFAA",
",X c #ECB5AA",
"<X c #BCCCB2",
"1X c #BEC496",
"2X c #D2C897",
"3X c #EECE92",
"4X c #FDEA89",
"5X c #F5EC8E",
"6X c #DAC8B7",
"7X c #CFCEB8",
"8X c #F4C7AA",
"9X c #E8CBB6",
"0X c #F1CAB9",
"qX c #EAD3B9",
"wX c #F5D3BA",
"eX c #ECCEAA",
"rX c #F5EDB1",
"tX c #9696C4",
"yX c #8CAAD6",
"uX c #90B2D7",
"iX c #ACB4CD",
"pX c #9BAEE0",
"aX c #C8BAC7",
"sX c #AECED0",
"dX c #8ECBEE",
"fX c #A7DBF3",
"gX c #B0CFEA",
"hX c #ADD9E9",
"jX c #CCCED2",
"kX c #E9D6C7",
"lX c #F4D8CA",
"zX c #EECECF",
"xX c #FCEBC7",
"cX c #FAF9CA",
"vX c #EAE4D9",
"bX c #F5E7DA",
"nX c #F5F0D0",
"mX c #CCD6EB",
"MX c #E8D6E8",
"NX c #D2E9F3",
"BX c #EAE9E8",
"VX c #F7E8E7",
"CX c #FCFDEC",
"ZX c #F9F6EA",
"AX c #E8ECF7",
"SX c #F8EBF7",
"DX c #ECFBFB",
"FX c #FDF4F4",
"GX c #F6FDF4",
"HX c #FDFDF5",
"JX c #F5F5FD",
"KX c #FEF6FE",
"LX c #F5FEFD",
"PX c #FEFEFE",
"IX c #F4F4F3",
"UX c #ECF3ED",
/* pixels */
"PXPXPXPXPXPXPXPXPXPXPXPXPXPXPXPXPXPXPXPXPXPXPXPXPXPXHXPXHXPXPXLXHXPXKXHXLXIXNXmXMXDXAXUXUXPXHXPXKXKXLXPXHXPXPXHXPXPXPXPXPXPXPXPX",
"PXPXPXPXPXPXPXPXPXPXPXPXPXPXPXPXPXPXPXPXPXPXPXPXPXPXPXPXHXHXHXPXLXAXgXiX`.`.`./.yXmXyX/.yXiX0XSXGXPXPXKXPXPXPXLXPXPXPXPXPXPXPXPX",
"PXPXPXPXPXPXPXPXPXPXPXPXPXPXPXPXPXPXPXPXPXPXPXPXPXPXPXPXPXPXPXAXiX`.uX^.{.B.{.~.K.~.mXjX{.).v.( ,XKXPXPXLXPXLXPXPXPXPXPXPXPXHXPX",
"PXPXPXPXPXPXPXPXPXPXPXPXPXPXPXPXPXPXPXPXPXPXPXPXPXPXPXKXKXPXZX+XyX6X6X1XM.z.~.`.sXtX`.yXg.z.P b l ;XDXPXPXPXPXPXPXPXPXPXPXPXPXPX",
"PXPXPXPXPXPXPXPXPXPXPXPXPXPXPXPXPXPXPXPXPXPXPXPXPXLXPXHXPXFXrXV.@X-X XC.N.f.i.pXSXgXl.6 Y v.^ Z ^ l zXKXKXPXGXPXPXPXPXPXPXPXPXPX",
"PXPXPXPXPXPXPXPXPXPXPXPXPXPXPXPXPXPXPXPXPXPXPXPXHXHXPXLXPXxX5X+XV.jXuXC.@XV.pXV.^./.t.w ^ tXn.b U V ( FXPXJXPXHXPXPXPXPXPXPXPXPX",
"PXPXPXPXPXPXPXPXPXPXPXPXPXPXPXPXPXPXPXPXPXPXPXPXHXPXPXPXZX5X5X+X7XOX>X+X^.mXJX+Xz./.z.h.^ tXn.v V H m lXPXLXPXPXPXPXPXPXPXPXPXPX",
"PXPXPXPXPXPXPXPXPXPXPXPXPXPXPXPXPXPXPXPXPXPXPXPXPXPXHXPXcX4XlXiXiX<XtXl.a.V././.f.B./.{.tXK.~ v ^ C m %XKXGXPXLXPXPXPXPXPXPXPXPX",
"PXPXPXPXPXPXPXPXPXPXPXPXPXPXPXPXPXPXPXPXPXPXPXPXPXHXPXPXrX9.6X^./.~.^.yXmXjXpX~.^.~.~.~.uXsX$Xj j g g Y VXPXKXLXPXPXPXPXPXPXPXPX",
"PXPXPXPXPXPXPXPXPXPXPXPXPXPXPXPXPXPXPXPXPXPXPXPXPXPXLXLXxX3XoX/.uXdXuXpXgXpXgXNXAXgXyXaXeXwXzX>Xi X X OXPXHXLXCXPXPXPXPXPXPXPXPX",
"PXPXPXPXPXPXPXPXPXPXPXPXPXPXPXPXPXPXPXPXPXPXPXPXPXPXPXPXFXFXVXhXgXuX`.s.i.j.f.tXpXgXaX9X9XlXwX8XlXoXjXHXPXPXPXLXPXPXPXPXPXPXPXPX",
"PXPXPXPXPXPXPXPXPXPXPXPXPXPXPXPXPXPXPXPXPXPXPXPXPXPXPXLXPXHXPXNXdXgXVXMX+X@Xg.7 4 w.e.Q 3X;X8XkXwXbXvXvXHXPXPXLXPXPXPXPXPXPXPXPX",
"PXPXPXPXPXPXPXPXPXPXPXPXPXPXPXPXPXPXPXPXPXPXPXPXPXPXPXLXLXPXPXPXBXPXPXLXHXPXLXNXjXBXjX.X:.*.2X-XeXwX9XlXlXHXLXHXPXPXPXPXPXPXPXPX",
"PXPXPXPXPXPXPXPXPXPXPXPXPXPXPXPXPXPXPXPXPXPXPXPXLXPXPXHXHXPXPXPXHXPXPXPXGXPXHXPXPXPXPX:X*.;X,.:.,.W :.8XkXIXPXPXPXPXPXPXPXPXPXPX",
"PXPXPXPXPXPXPXPXPXPXPXPXPXPXPXPXPXPXPXPXPXPXPXPXPXPXPXPXHXHXPXPXPXHXFXPXPXPXPXKXPXKXKXjX&.R ; R =   E >X6XAXKXPXPXPXPXPXPXPXPXPX",
"PXPXPXPXPXPXPXPXPXPXPXPXPXPXPXPXPXPXPXPXPXPXPXPXPXPXPXPXPXHXPXPXPXPXPXPXHXHXPXHXPXLXLXVX.X=.A O % E *X*X-XvXPXHXPXPXPXPXPXPXPXPX",
"PXPXPXPXPXPXPXPXPXPXPXPXPXPXPXPXPXPXPXPXPXPXPXPXPXPXPXPXPXPXPXPXPXPXPXPXPXPXPXPXPXPXPXPXjXXX#X,.*.:X-X=X:.kXPXLXPXPXPXPXPXPXPXPX",
"PXPXPXPXPXPXPXPXPXPXPXPXPXPXPXPXPXPXPXPXPXPXPXPXPXPXPXPXPXPXPXPXPXPXPXPXPXPXPXPXPXPXPXHXPXkX&.#X,XeX;X,.! kXPXPXPXPXPXPXPXPXPXPX",
"PXPXPXPXPXPXPXPXPXPXPXPXPXPXPXPXPXPXPXPXPXPXPXPXPXPXPXPXPXPXPXPXPXPXPXPXPXPXPXPXLXPXPXPXPXHXkXE ! ! W R %.lXIXLXPXPXPXPXPXPXPXPX",
"PXPXPXPXPXPXPXPXPXPXPXPXPXPXPXPXPXPXPXPXPXPXPXPXPXPXPXPXPXPXPXPXPXPXPXPXPXPXPXPXPXPXPXPXPXPXFXoXW R & & W 6XPXPXPXPXPXPXPXPXPXPX",
"PXPXPXPXPXPXPXPXPXPXPXPXPXPXPXPXPXPXPXPXPXPXPXPXPXPXPXPXPXPXPXPXPXPXPXPXPXPXPXPXPXPXPXPXDXPXPX>XW W u R W qXjXvXPXPXPXPXPXPXPXPX",
"PXPXPXPXPXPXPXPXPXPXPXPXPXPXPXPXPXPXPXPXPXPXPXPXPXPXPXPXPXPXPXPXPXPXPXPXPXPXPXPXPXHXGXLXPXKXFXoX*.&.=.R W 2XoXBXPXPXPXPXPXPXPXPX",
"PXPXPXPXPXPXPXPXPXPXPXPXPXPXPXPXPXPXPXPXPXPXPXPXPXPXPXPXPXPXPXPXPXPXPXPXPXPXPXPXPXHXPXPXPXPXKX>X.XXX&.R &.oXvXLXPXPXPXPXPXPXPXPX",
"PXPXPXPXPXPXPXPXPXPXPXPXPXPXPXPXPXPXPXPXPXPXPXPXPXPXPXPXPXPXPXPXPXPXPXPXPXPXPXPXLXPXFXPXPXPXVX+X&. X XQ Q OXzX>XPXPXPXPXPXPXPXPX",
"PXPXPXPXPXKXPXPXPXPXPXHXPXPXPXLXPXKXPXPXPXPXPXPXPXPXPXPXKXPXPXPXPXPXPXPXPXPXPXPXPXHXLXPXFXPX>X! &.O 2 # # E &.g UXCXPXPXLXPXPXHX",
"PXPXPXPXPXPXLXPXLXPXPXPXKXPXPXKXPXPXPXPXHXPXPXPXKXGXKXPXPXPXPXPXPXPXPXPXPXPXPXPXPXPXLXKXLXLX~ R .XE O $ = ~ S m MXHXPXLXPXPXPXPX",
"PXPXPXPXPXPXPXPXKXPXPXHXPXPXHXPXPXKXPXPXPXPXLXPXPXPXPXPXPXKXPXPXPXPXPXPXPXPXPXPXHXPXPXLXGX,Xk G / D h g g c v M {.DXPXPXPXLXLXPX",
"PXPXPXPXPXKXGXPXPXPXPXPXHXPXPXPXLXPXPXGXJXHXPXPXKXGXPXPXPXPXPXPXPXPXPXPXPXPXPXPXHXPXPXFXPX( l c a a a a s s T g.m.DXPXPXPXLXPXPX",
"PXPXPXIXPXPXPXPXPXPXPXHXPXPXPXPXPXPXPXPXPXPXLXPXPXPXPXPXHXPXLXHXPXPXPXPXPXPXPXHXPXLXPXKXVXH b v.p w e e h.g.l.I._.FXHXLXPXKXKXLX",
"IXPXPXPXPXPXPXPXLXKXPXHXKXPXLXPXHXPXPXHXPXPXPXLXIXUXBXmXvXIXPXPXPXJXHXPXPXPXJXPXPXLXFXPXnXb M f.k.d.d.u.i.p.i.a.gXPXLXLXPXPXHXPX",
"PXPXPXPXPXPXPXKXPXLXPXPXPXPXKXPXPXPXPXJXPXDXjX Xi i i y y h.+XjXIXPXHXJXPXPXPXPXKXHXHXKXlXv N x.u.9 + : < M.~.r.yXGXPXPXPXLXPXPX",
"PXPXPXPXPXPXPXGXPXPXPXPXPXPXLXPXPXIXPXPXaXp # 2 y @ $ 2 y 2 $ 2 i jXPXPXPXPXPXPXPXGXPXPXlXl B x.t.t.t.1   t dX].gXPXKXFXCXPXPXPX",
"LXKXPXPXPXPXPXPXPXHXPXPXPXPXPXPXPXPXLX+X  2 y ,   O o     . X X X . @XUXLXPXGXHXPXPXHXKXzXl g e.e.w.d.a.d.8 d.dXNXHXLXKXPXPXKXPX",
"PXHXPXPXPXPXPXPXKXLXPXPXPXPXKXHXPXPXAXi w y ; Q *.-X-XeX*X&X.X&.u . y i UXHXPXPXPXFXFXPX0Xl g e.w.e.y.a.6 y.t._.DXHXLXPXFXLXPXHX",
"PXPXPXPXPXHXPXLXPXPXPXPXPXPXPXPXLXPX@X# >X.X*X8XlXlXqXqX9XwX9XqX2X; $ y oXZXPXLXPXJXPXLX;Xx B e.0 q 0 H.d.+ + yXLXPXIXPXFXLXLXLX",
"PXPXPXPXLXKXPXPXPXPXPXKXGXPXHXJXHXIX#  XvXqXeX9XwXqXwXwX0X0X0XqXwX&.  w p <XPXPXKXPXPXZX( x c e.6 7 q 4 ).~.4 d.NXLXPXPXPXLXPXPX",
"PXHXKXLXHXPXKXPXPXLXHXPXPXPXPXPXPX+X  +X7X*.&.XX&X,X-X&X*.&.*.XX:X&.. $ y +XLXLXLXLXPXbXZ b c q w.5 w.< t ].}.'.dXHXLXJXPXKXFXPX",
"PXPXHXPXPXLXPXPXPXPXPXKXPXPXPXPXSXy $  XE u = O & <.;X& % - ; A XX>XO . # i FXLXPXPXPXzXl H k q 8 < e.7 : t.].dXfXLXPXPXPXPXPXPX",
"PXPXPXKXPXPXPXKXLXPXPXPXHXPXPXPXBX$ u 7XQ E W R R :X8XW E &.R Q XXkX&.  # y MXLXLXFXPX,Xl H c e 8 7 0 7 6 0 u.W.].BXHXPXPXKXPXPX",
"PXPXPXPXPXPXPXPXHXPXPXPXPXPXPXPXDX# p kX>X*X*XeX-X8X0X0X,X&X*X8XeXqX>X  # u BXLXLXKXPX,Xx Z z I 8 0 5 7 6 > d.G.dXJXPXLXLXLXHXLX",
"LXPXPXKXPXPXPXPXPXPXPXPXHXPXLXPXCXiX XBX9XlX0X&X=.&.,.#X-X6XeXlXkXvXBXXX=.>XFXHXDXKXPX;Xl C v e 8 1 5 6 5 > u.).fXPXPXPXPXFXHXPX",
"PXHXHXPXPXPXPXLXLXPXPXPXHXPXLXKXHXHX6XkX6X>.,.! O O   * $X,.;X-X0XvXSXkX/ qXLXLXKXKXLX%Xl H c I 7 6 9 6 > : w.dXfXAXPXGXJXHXLXPX",
"KXPXPXLXPXPXPXPXKXLXPXPXPXPXPXPXPXLX0X=X&XD * * o # # X y = E >.-XnXBXzX:.vXHXZXPXGXPX%Xl U c h e.9 1 6 > + 3 dXfXNXDXLXPXHXLXPX",
"PXPXPXPXPXPXPXPXPXPXPXPXKXPXPXPXLXPX9X=X;XW   # p Q ! E #   E <.,.kXbX0X,XHXHXHXHXHXPX%Xj B c c r 3 9 1 : : 4 (.fXNXLXPXPXHXLXKX",
"PXPXHXPXHXPXPXPXHXPXPXKXKXPXPXPXFXPX6X&X:.,.=.:.:.#X#X=X2X,.,.;X-X9XbX7XVXLXJXKXJXIXPX&Xl B M k r 8 6 > < , 6 A.dXfXAXPXPXLXPXPX",
"PXLXKXPXKXLXPXPXPXPXHXPXPXPXHXPXHXLXHX6X%.<.<.:.$X&X*X*X*X=X<.>.=XqXBXbXSXHXPXKXPXCXdXc.x M B z I 8 5 3 > : 5 s.}.dXNXPXHXPXPXPX",
"PXPXPXPXPXLXPXPXPXPXPXLXPXPXPXHXKXLXLXbX%.=.:.>X&X&X>.&X=X#X>.%.2.6X,X( ( %X%XzXSXsXS.^.Z V M V f 7 > 6 9 > 9 a.|.dXNXKXHXKXPXFX",
"PXPXPXPXPXKXHXPXPXPXLXKXPXPXPXPXPXLXHXPX2XF D W W D d F W W D D / J l b ^ C l x %XU.U.Z.) x B c g 5 , : 9 0 7 p.(.}.hXPXIXLXPXPX",
"PXKXLXPXPXHXPXKXHXCXKXPXHXPXPXHXHXKXLXPXFX! F S d & % O % a B N Z c N N n n -.O.1XT.~.F.c.v N M M e , 6 , 6 0 a.'._.fXGXLXKXGXLX",
"PXHXPXPXPXPXKXPXLXJXPXPXPXLXPXHXJXPXZXlXzX>Xd d h - h g N C b m k l j n n o.X.} C.T.I.Z.l.B c n b e 3 5 6 1 e.u.J.'.gXGXLXKXLXPX",
"KXHXPXPXPXPXHXJXPXPXFXPXCXCXPXPXPXVX%Xj F -.&X%.D T V V V M M U ) ( ;.;.o.6.1X+XK.G.G.H.D.T z M c I 3 5 7 , 6 i.K.I.mXPXFXGXLXKX",
"LXPXPXPXPXPXPXPXIXPXPXKXPXPXJXZXKX,Xm / ` -.%X) x s c B j n N J 2.<.3X5X$.~.m.T.a.H.G.J.p.Y v Z b L , e.w.+ < d.K.Y.AXKXHXLXLXFX",
"LXHXPXPXPXPXPXPXLXPXGXHXHXPXHXPXGX;Xm ^ V Z j H $X>X/ G ` _ _ ' ' o.o.{ iXL.K.s.a.R.G.G.m.e b N m B < 8 d.: < y.p._.PXKXHXPXLXHX",
"PXPXKXKXPXPXPXPXPXGXGXPXHXPXKXvX( ( ;X-.J G J ` lXMX7.] O.o.o.3.7.;Xq.iXE.'.G.a.k.G.P.F.E.w.f V M V r w.s.5 : s.u.gXLXLXPXHXPXHX",
"PXPXPXPXLXHXPXPXPXHXPXPXKXKXxX7.wX7.` o.o.] o.] xXBX ...o.o.o.3.` ;._.E.'.U.U.k.D.A.F.G.G.A.I b V c I w.l.q 9 a.s.NXLXFXPXKXPXHX",
"PXPXPXHXLXPXPXPXPXHXPXcXrX6.X.4XeX] O.O.{  .O.| xXxXX.o.X...o.7.3.rXE.Y.Q.Q.E.Z.p.m.S.A.T.D.h.s B z P 4 K.t.q j.uXLXKXHXPXLXKXHX",
"FXPXGXCXHXPXDXPXcXrX5X4.} O...#.#.O. .} #.4.{ 4XFX4.O.X.7.3X3X3X3XiXE.!.'.Y.W.F./.pXD.D.F.S.F.P z c P t.s.M.u.(.hXCXLXKXHXLXPXLX",
"LXPXLXLXKXCXcX5X} 5.6.+.4.[ 5.4X8.8.8.9.9.4.| rXxX[ #...#.5.+.[ 6.).Q.!.U.Q.S.H.J.sXuXD.A.P.D.B.f M U s.d.).~.dXNXPXPXPXHXPXPXPX",
"PXHXPXPXnX9.| ..9.@.| @.} 6.5X5X9.9.8.8.#.| 9.IX0.|  .O.{ [ $.| <XE.U.I.L.P.~.k.m.m.s.H.p.j.R.L.~ n C l.I.).}.dXNXPXLXPXHXPXPXPX",
"PXKXPXcX .[ 6.4X4.| 5.5.8.9.9.6.#...| 6.5.| 5XJX@. .O.{ +.@.} 0.Q.L.'.T._.hXAXdX~.D.D.K.A.s.D.g.Z N n f.U._.dX}.fXLXKXPXPXPXPXPX",
"CXPXvXq.| ..6.6.+.$.5.8.$.#.6.$.+...4.4. .[ rXIXO...@.O.+.O.X.7XT.W.).Q.Y.fXNXmX(.S.E.a.J.j.f.Z v H x c.!.}.}.}.[.PXPXPXHXPXPXPX",
"PXAXQ.uX<X5XrX0.| } 4.+...@.+.@.O.@.@.| #. .cXFX{ +. .O.@.{ 5.].S.!.L.W.Q.Y.E.I.J.p.F.a.K.D.Y v Z Z v ~ L.}.}.'.~.JXPXKXPXPXFXPX",
"LX}.Q.}.!.'.}.}.7X2X0.4.} } @.+.O.@. .O.O.[ nXnX} @.+...X.[ <XE.(.'._.L.F.T.U.I.D.Z.A.j.m.V.l Z H b Z U ~.(.|.).M.AXHXPXPXPXPXPX",
"NXE.'.Q.|.'.|.}.Q.Q.|.uX7X0.+.+.....O.+.@.{ ZXrX{ O.O. .6.sXQ.'.|.mXJXhX_.E.Q.G.D.m.A.!.F./.^ m Z C V v v.).}.).M.AXPXPXPXPXLXPX"
};
