/* XPM */
static char *_5719_84680e903b4b582df6b4335ebc53ffe28ee945b8162669522bb709019ae55429[] = {
/* columns rows colors chars-per-pixel */
"64 64 217 2 ",
"   c #000000",
".  c #0B0101",
"X  c #0D0904",
"o  c #020309",
"O  c #0B050A",
"+  c #03080C",
"@  c #0B0A0B",
"#  c #060807",
"$  c #130200",
"%  c #1B0100",
"&  c #110805",
"*  c #1D0C02",
"=  c #140C09",
"-  c #19090A",
";  c #1E1007",
":  c #1C110B",
">  c #060E11",
",  c #100B11",
"<  c #1A1A1A",
"1  c #171415",
"2  c #220100",
"3  c #2C0200",
"4  c #220C01",
"5  c #290B00",
"6  c #350D00",
"7  c #251205",
"8  c #2C1304",
"9  c #24160D",
"0  c #2B1708",
"q  c #261B0C",
"w  c #2C190C",
"e  c #2D1807",
"r  c #311504",
"t  c #381B06",
"y  c #341C0D",
"u  c #3B1E0C",
"i  c #321808",
"p  c #231713",
"a  c #251B14",
"s  c #2C1B11",
"d  c #261B19",
"f  c #321F12",
"g  c #3B210E",
"h  c #2D2216",
"j  c #342215",
"k  c #3B2313",
"l  c #33231A",
"z  c #3C2619",
"x  c #352A1E",
"c  c #3E291B",
"v  c #2E2623",
"b  c #3A2D23",
"n  c #332D26",
"m  c #3B322A",
"M  c #3E3C3D",
"N  c #4A1600",
"B  c #47240C",
"V  c #402514",
"C  c #462915",
"Z  c #4A2914",
"A  c #442C1B",
"S  c #4C2E1B",
"D  c #5A2E15",
"F  c #532C14",
"G  c #5C3214",
"H  c #573319",
"J  c #5B341B",
"K  c #582506",
"L  c #652703",
"P  c #7D2E05",
"I  c #73310E",
"U  c #61351F",
"Y  c #6A3B1F",
"T  c #673818",
"R  c #753D1C",
"E  c #422E21",
"W  c #442C2C",
"Q  c #453325",
"!  c #4A3324",
"~  c #4B372B",
"^  c #4A392C",
"/  c #5C3922",
"(  c #5D3E2A",
")  c #543824",
"_  c #423935",
"`  c #423731",
"'  c #653B24",
"]  c #3E403F",
"[  c #7A411D",
"{  c #4B443B",
"}  c #5D4030",
"|  c #554638",
" . c #674022",
".. c #6C4123",
"X. c #63412D",
"o. c #6C452A",
"O. c #68482F",
"+. c #744224",
"@. c #7E4522",
"#. c #72452C",
"$. c #7B4628",
"%. c #75492C",
"&. c #7C4C2D",
"*. c #634534",
"=. c #6C4A35",
"-. c #664E3E",
";. c #6A4732",
":. c #744C34",
">. c #7B4C32",
",. c #724F3C",
"<. c #795035",
"1. c #74533C",
"2. c #7D533B",
"3. c #7A553A",
"4. c #464644",
"5. c #695443",
"6. c #725343",
"7. c #7F5C44",
"8. c #8E3C0A",
"9. c #873D16",
"0. c #8A441A",
"q. c #88451B",
"w. c #974817",
"e. c #864B27",
"r. c #904822",
"t. c #8E542F",
"y. c #9B5326",
"u. c #93522F",
"i. c #9D572A",
"p. c #814F34",
"a. c #8B5333",
"s. c #8B5835",
"d. c #81533A",
"f. c #8D5A3B",
"g. c #855436",
"h. c #925632",
"j. c #9C5A33",
"k. c #955C3B",
"l. c #9C5E39",
"z. c #945C37",
"x. c #AB5C2D",
"c. c #A45928",
"v. c #B45F28",
"b. c #A35D35",
"n. c #94613E",
"m. c #9D633F",
"M. c #AE6129",
"N. c #B6622B",
"B. c #BC642C",
"V. c #BE682F",
"C. c #A56135",
"Z. c #AD6334",
"A. c #A9643B",
"S. c #AB683C",
"D. c #A0623B",
"F. c #B16433",
"G. c #BD6A34",
"H. c #B26739",
"J. c #B26B3D",
"K. c #BD6D39",
"L. c #BD6631",
"P. c #C3692E",
"I. c #C1662D",
"U. c #C26D35",
"Y. c #C36D3A",
"T. c #C3723C",
"R. c #CA773E",
"E. c #D27C3F",
"W. c #845B43",
"Q. c #975E40",
"!. c #8E6144",
"~. c #85644C",
"^. c #966848",
"/. c #976B54",
"(. c #9F725F",
"). c #AC6B43",
"_. c #AE6D4B",
"`. c #A66744",
"'. c #B06F4A",
"]. c #AC724C",
"[. c #A5704E",
"{. c #BC7142",
"}. c #B9754B",
"|. c #B5754B",
" X c #AD7959",
".X c #A37158",
"XX c #B77A54",
"oX c #9D7A69",
"OX c #A57C64",
"+X c #C37443",
"@X c #CA7442",
"#X c #CD7A42",
"$X c #CC7B4B",
"%X c #D27B4C",
"&X c #D57B43",
"*X c #C87F52",
"=X c #BC825B",
"-X c #AB8268",
";X c #BD8361",
":X c #CE804F",
">X c #D9844C",
",X c #CD8354",
"<X c #C4845C",
"1X c #C8855A",
"2X c #D38452",
"3X c #D98B58",
"4X c #E58E57",
"5X c #E48E5B",
"6X c #E9945C",
"7X c #E89258",
"8X c #E2884C",
"9X c #CC8B63",
"0X c #C88C68",
"qX c #D5946B",
"wX c #D09873",
"eX c #E89762",
"rX c #E8A77F",
/* pixels */
"                                                                .   .   o               o o #                                   ",
"                                                                  O   o o o           o o                                       ",
"                                                                o   o   o   . .             #                                   ",
"                                                                o # o #     . $               .                                 ",
"                                                                #   X   . o .     .                                             ",
"                                                                X $ $ g   @       o     o .                                     ",
"                                                              #   % |.=X* o # o       o                                         ",
"                                                              . l  X,XJ.Q   >       o o                                         ",
"                                                            < . k.rX].2 w       o o                                             ",
"                                                    #     #   ~ k.|.;X..% . X             #                                     ",
"                                                          @ # ` / N XX=X( . $ .                                                 ",
"                                                      o #   @ . 5.:._.0X6.$ &   #                                               ",
"                                                          # < a 7.D p./.W . & .                                                 ",
"                                                    #         . <.T W.oX- o   . .                                               ",
"                                                          # # . /.k.Z 6.`   .     o   o o                                       ",
"                                                    #         4 [.I % | n   #   o o o     o                                     ",
"                                  o .             #       #   u .X3 $ | _   o o                                                 ",
"                                o               +   .     # . A OX3 $ { _ O O o     o o                                         ",
"                                      .               .   O . ^ OX% . { M     o     o   #                                       ",
"                                o                     #   # . ( oX% . { 4.o           . .                                       ",
"                                    .           o         X . *.OX2 $ | ] +   #       .     .                                   ",
"                                          o   o   o +   . 9 $ 6.-X2 % 5.4.  $ $ #   .                                           ",
"                                o     .   o           . . 5 % !.wXL s.~.m m % $ .   .     o o                                   ",
"                                                      . 5 % 6 n.qX}.|.^.j _ 6.t . .   o   o o                                   ",
"                                o     o   o         # * % &.=X|.:XK.{.Q.c ` W.2.$ .           o                                 ",
"                                                  X . $ N qXS.3XR.U.@X`.E b 2.!.A $ &     +                                     ",
"                                                .   : $ [.3Xc.eXU.Y.$X_.E x :.^.1.. &       #                                   ",
"                                o o                 = % 9XY.v.6XG.Y.%X_.Q b o.k.W.$ $         #                                 ",
"                                                  . $ $ <XU.I.4XG.@X$X_.Q x  .f.W.$ .                                           ",
"                                    .           .     $ 1XB.B.>XU.T.%X_.Q h J s.W.%       .                                     ",
"                                                  X # $ '.U.B.8XR.U.&X].{ q J g.:.$ . o o   o                                   ",
"                                            o       1 . D.R.B.>X>XU.R.J.) q H <.;.$ , o                                         ",
"                                        o       . . 1 . =X2XF.2XJ.x.#XJ.H 8 Z =.-.. O o                                         ",
"                                          o         @ . &.0.x.F.8.w.T.H.&.u J ) 4 . . o .                                       ",
"                                          o o     . . $ 2 R Z.F.x.$X@XA.s.J ' C $ . .                                           ",
"                                            o     . . * 2 [.,XN.L.5X{.A.h.p. .) . o . .   #   o                                 ",
"                                            o o   . . 4 %  X,XN.B.4XH.b.C.h.%.( . $     #     o                                 ",
"                                    .       o     . $ e % 0X*XN.P.7Xc.).A.j.>.X.* . .     o o o                                 ",
"                                          o       . $ % N 9X$Xv.&X6Xi.`.9.I ' =.g . . #   +                                     ",
"                                                . & . X.|.,XZ.K.#XR.c.A.r.L D :.:.S     o     o                                 ",
"                                        o         9 $ /.}.8.B.>XM.w.M.C.u.R U J :.=.. @     . .                                 ",
"                                      o         . 4 %  X*Xw.v.7XZ.C.Z.S.a.>.' ' R ' .       .                                   ",
"                                                . $ 3 0X).0.P.7Xc.S.Z.S.R S ' o.[ ..4       . .                                 ",
"                                              o # $ K qXe.0.&X8Xy.S.H.C.' % ( >.@.&.k   o .                                     ",
"                                                @ % +.<Xe.r.%X&Xi.S.S.l.#.$ ' &.@.&.S . . o #                                   ",
"                                                @ . $.=X[ 0.$X@Xy.S.Z.l.=.% H +.@.p.!   @                                       ",
"                                                @ . F  Xq.q.+X+Xy.S.A.z.*.* G R $.d.! . O o                                     ",
"                                                  . 2 !.$.q.C.}.u.C.j.a.=.4 D +.$.2.A . O                                       ",
"                                                  = . ( 2.+.t.).j.b.b.h.o.5 D #.%.1.0     #   #                                 ",
"                                o                 o o % S 1.&.s.k.l.u.k.o.3 / :.W.}   = .                                       ",
"                                  o           o #   & . $ B ..%.' k.k.f.*.4 *.1.=.8 .                                           ",
"                                o                 O   . $ % % 3 2 F 2.W.-.* ^ } 5 $ &     O                                     ",
"                                                  + o . . * i u r r 6 u l . $ $ $ $           .                                 ",
"                                        .             . 9 f k y e e 5 * X X : 0 % .   # o                                       ",
"                                                    . : l l e y 4 4 f f v . p x j $           .                                 ",
"                                                o   . n a s f f w l l l d   p s s j   #     #                                   ",
"                                o                   : b s f f u k z g j a . : s w h &   o                                       ",
"                                                . . a E 8 y V V f c k j a . : w w j -                                           ",
"                                                . . p Q 8 u Z Z u V g g s . 7 0 i f :                                           ",
"                                    o     o       . * ~ r u S Z u V g g s $ * q e f :   #                                       ",
"                                                  . $ ! u i S Z u V k z s . * s 0 w :   #     .                                 ",
"                                        o o       . . E f 8 S S u k k k s . ; s 0 w =                                           ",
"                                .         o o     . . l A i Z E f z j j a . : q 0 0 $                                           ",
"                                        o           . s V y V ! y V c f d & p 9 q 9 .                                           "
};
